<svg xmlns="http://www.w3.org/2000/svg" xmlns:xlink="http://www.w3.org/1999/xlink" id="coligo-app-icon" viewBox="0 0 32 32"><defs><linearGradient id="a" x2="8" y1="21" y2="21" gradientUnits="userSpaceOnUse"><stop offset=".15"/><stop offset="1" stop-opacity="0"/></linearGradient><linearGradient id="b" x1="16.5" x2="25.5" y1="21.5" y2="21.5" gradientUnits="userSpaceOnUse"><stop offset=".1"/><stop offset=".8" stop-opacity="0"/></linearGradient><linearGradient id="c" x1="0" x2="11" y1="9" y2="9" xlink:href="#a"/><mask id="mask" width="32" height="32" x="0" y="0" maskUnits="userSpaceOnUse"><path fill="#fff" d="M20,18v8H10V16h4V14H9.08A1.08,1.08,0,0,0,8,15.08V20H1v2H8v4.92A1.08,1.08,0,0,0,9.08,28H20.92A1.08,1.08,0,0,0,22,26.92V18Z"/><rect width="13" height="2" x="1" y="8" fill="#fff"/><rect width="8" height="4" y="19" fill="url(#a)"/><rect width="9" height="4" x="16.5" y="19.5" fill="url(#b)" transform="translate(42.5 0.5) rotate(90)"/><rect width="11" height="4" y="7" fill="url(#c)"/></mask><linearGradient id="d" x2="32" y1="32" gradientUnits="userSpaceOnUse"><stop offset=".1" stop-color="#08bdba"/><stop offset=".9" stop-color="#0f62fe"/></linearGradient></defs><rect id="background-shape" width="32" height="32" fill="url(#d)" mask="url(#mask)"/><path id="foreground-container" fill="#001d6c" d="M29,18H17a1,1,0,0,1-1-1V5a1,1,0,0,1,1-1H29a1,1,0,0,1,1,1V17a1,1,0,0,1-1,1M18,16H28V6H18Z"/></svg>